<svg width="240" height="97" viewBox="0 0 240 97" fill="none" xmlns="http://www.w3.org/2000/svg">
<path d="M0.900449 95V1.90909H38.1732C45.0217 1.90909 50.7338 2.92424 55.3095 4.95454C59.8853 6.98485 63.3247 9.80303 65.6277 13.4091C67.9308 16.9848 69.0823 21.1061 69.0823 25.7727C69.0823 29.4091 68.355 32.6061 66.9005 35.3636C65.4459 38.0909 63.4459 40.3333 60.9005 42.0909C58.3853 43.8182 55.5065 45.0455 52.2641 45.7727V46.6818C55.8095 46.8333 59.1277 47.8333 62.2186 49.6818C65.3398 51.5303 67.8701 54.1212 69.8095 57.4545C71.7489 60.7576 72.7186 64.697 72.7186 69.2727C72.7186 74.2121 71.4914 78.6212 69.0368 82.5C66.6126 86.3485 63.0217 89.3939 58.2641 91.6364C53.5065 93.8788 47.6429 95 40.6732 95H0.900449ZM20.5823 78.9091H36.6277C42.1126 78.9091 46.1126 77.8636 48.6277 75.7727C51.1429 73.6515 52.4005 70.8333 52.4005 67.3182C52.4005 64.7424 51.7792 62.4697 50.5368 60.5C49.2944 58.5303 47.5217 56.9848 45.2186 55.8636C42.9459 54.7424 40.2338 54.1818 37.0823 54.1818H20.5823V78.9091ZM20.5823 40.8636H35.1732C37.8701 40.8636 40.2641 40.3939 42.355 39.4545C44.4762 38.4848 46.1429 37.1212 47.355 35.3636C48.5974 33.6061 49.2186 31.5 49.2186 29.0455C49.2186 25.6818 48.0217 22.9697 45.6277 20.9091C43.2641 18.8485 39.9005 17.8182 35.5368 17.8182H20.5823V40.8636ZM85.5254 95V1.90909H122.253C129.313 1.90909 135.328 3.25757 140.298 5.95454C145.268 8.62121 149.056 12.3333 151.662 17.0909C154.298 21.8182 155.616 27.2727 155.616 33.4545C155.616 39.6364 154.283 45.0909 151.616 49.8182C148.95 54.5455 145.086 58.2273 140.025 60.8636C134.995 63.5 128.904 64.8182 121.753 64.8182H98.3436V49.0455H118.571C122.359 49.0455 125.48 48.3939 127.935 47.0909C130.419 45.7576 132.268 43.9242 133.48 41.5909C134.722 39.2273 135.344 36.5151 135.344 33.4545C135.344 30.3636 134.722 27.6667 133.48 25.3636C132.268 23.0303 130.419 21.2273 127.935 19.9545C125.45 18.6515 122.298 18 118.48 18H105.207V95H85.5254ZM218.9 28.6818C218.537 25.0151 216.976 22.1667 214.219 20.1364C211.461 18.1061 207.719 17.0909 202.991 17.0909C199.779 17.0909 197.067 17.5455 194.855 18.4545C192.643 19.3333 190.946 20.5606 189.764 22.1364C188.613 23.7121 188.037 25.5 188.037 27.5C187.976 29.1667 188.325 30.6212 189.082 31.8636C189.87 33.1061 190.946 34.1818 192.31 35.0909C193.673 35.9697 195.249 36.7424 197.037 37.4091C198.825 38.0455 200.734 38.5909 202.764 39.0455L211.128 41.0455C215.188 41.9545 218.916 43.1667 222.31 44.6818C225.703 46.197 228.643 48.0606 231.128 50.2727C233.613 52.4848 235.537 55.0909 236.9 58.0909C238.294 61.0909 239.007 64.5303 239.037 68.4091C239.007 74.1061 237.552 79.0455 234.673 83.2273C231.825 87.3788 227.703 90.6061 222.31 92.9091C216.946 95.1818 210.476 96.3182 202.9 96.3182C195.385 96.3182 188.84 95.1667 183.264 92.8636C177.719 90.5606 173.385 87.1515 170.264 82.6364C167.173 78.0909 165.552 72.4697 165.4 65.7727H184.446C184.658 68.8939 185.552 71.5 187.128 73.5909C188.734 75.6515 190.87 77.2121 193.537 78.2727C196.234 79.303 199.279 79.8182 202.673 79.8182C206.007 79.8182 208.9 79.3333 211.355 78.3636C213.84 77.3939 215.764 76.0455 217.128 74.3182C218.491 72.5909 219.173 70.6061 219.173 68.3636C219.173 66.2727 218.552 64.5152 217.31 63.0909C216.097 61.6667 214.31 60.4545 211.946 59.4545C209.613 58.4545 206.749 57.5455 203.355 56.7273L193.219 54.1818C185.37 52.2727 179.173 49.2879 174.628 45.2273C170.082 41.1667 167.825 35.697 167.855 28.8182C167.825 23.1818 169.325 18.2576 172.355 14.0455C175.416 9.83333 179.613 6.54545 184.946 4.18182C190.279 1.81818 196.34 0.63636 203.128 0.63636C210.037 0.63636 216.067 1.81818 221.219 4.18182C226.4 6.54545 230.431 9.83333 233.31 14.0455C236.188 18.2576 237.673 23.1364 237.764 28.6818H218.9Z" fill="black"/>
</svg>
